# xmcd
#
# Track frame offsets:
#	150
#	13684
#	31912
#	49160
#	73898
#	101736
#	115556
#	136120
#	153206
#	177364
#
# Disc length: 2661 seconds
# Revision: 0
# Processed by: cddbd v1.5.2PL0 Copyright (c) Steve Scherf et al.
# Submitted via: dBpowerAMP V12.0
#
DISCID=7c0a630a
DTITLE=Lamont Cranston Band - El Cee Notes [Waterhouse Records] (L)
DYEAR=1978
DGENRE=Blues
TTITLE0=12 Swing
TTITLE1=Takin' A Chance
TTITLE2=Close To You
TTITLE3=E Jam
TTITLE4=The Darker Side
TTITLE5=Checking On My Baby
TTITLE6=Tin Pan Alley
TTITLE7=Riding With Daddy
TTITLE8=Everything's Gonna Be Alright
TTITLE9=Lickin' Stick
EXTD=
EXTT0=
EXTT1=
EXTT2=
EXTT3=
EXTT4=
EXTT5=
EXTT6=
EXTT7=
EXTT8=
EXTT9=
PLAYORDER=
